<svg width="699" height="157" viewBox="0 0 699 157" fill="none" xmlns="http://www.w3.org/2000/svg" style="">
<mask id="path-1-outside-1_9_11" maskUnits="userSpaceOnUse" x="0" y="0" width="699" height="157" fill="black">
<path fill="white" width="699" height="157" d="M0 0 L699 0 L699 157 L0 157 Z" class="dAFxpdcf_0"></path>
<path d="M16.0112 93.636C17.1888 98.4653 19.0141 102.058 21.487 104.413C24.0776 106.769 27.787 107.947 32.615 107.947C38.7384 107.947 42.9777 106.298 45.3328 103C47.688 99.5842 48.8655 94.5783 48.8655 87.9823V16.0742H21.6636V4.76678H61.5833V87.2756C61.5833 98.2297 58.9927 106.298 53.8113 111.481C48.63 116.663 41.5646 119.254 32.615 119.254C24.4898 119.254 18.072 117.311 13.3617 113.424C8.65141 109.419 5.53085 103.824 4 96.6396L16.0112 93.636Z" class="dAFxpdcf_1"></path>
<path d="M126.585 67.4876C126.585 60.6561 125.349 55.9446 122.876 53.3534C120.521 50.6443 116.34 49.2898 110.335 49.2898C107.038 49.2898 103.564 49.7609 99.9133 50.7032C96.2629 51.5277 92.5535 52.6466 88.7853 54.0601L85.0759 43.8127C94.0255 39.808 102.74 37.8057 111.218 37.8057C120.403 37.8057 127.351 39.9847 132.061 44.3428C136.889 48.7008 139.303 55.5913 139.303 65.0141V106.534L140.01 117.841H127.998L126.585 106.534V67.4876ZM132.414 81.4452C118.519 81.4452 108.686 82.6231 102.916 84.9788C97.2638 87.3345 94.4376 91.0448 94.4376 96.1095C94.4376 99.5253 95.3797 102.234 97.2638 104.237C99.1479 106.239 102.033 107.24 105.919 107.24C109.334 107.24 112.749 106.534 116.164 105.12C119.697 103.707 124.171 101.528 129.588 98.583L130.295 98.2297L133.121 107.417C133.003 107.417 132.885 107.476 132.768 107.594C126.998 111.127 121.934 113.836 117.577 115.721C113.22 117.605 108.451 118.548 103.269 118.548C97.0283 118.548 91.7292 116.663 87.3722 112.894C83.1329 109.125 81.0133 103.766 81.0133 96.8163C81.0133 87.9823 85.017 81.3863 93.0245 77.0283C101.032 72.6702 114.162 70.4912 132.414 70.4912V81.4452Z" class="dAFxpdcf_2"></path>
<path d="M212.254 51.4099C205.895 49.6431 199.83 48.7597 194.06 48.7597C188.879 48.7597 184.816 49.702 181.872 51.5866C178.929 53.4711 176.809 56.5336 175.514 60.7739C174.218 64.8963 173.571 70.7267 173.571 78.265C173.571 85.8033 174.218 91.6926 175.514 95.9329C176.809 100.055 178.929 103.059 181.872 104.943C184.816 106.828 188.879 107.77 194.06 107.77C199.83 107.77 205.895 106.887 212.254 105.12L214.55 115.721C207.956 117.959 200.89 119.078 193.354 119.078C181.46 119.078 172.923 115.426 167.742 108.124C162.678 100.703 160.146 90.7503 160.146 78.265C160.146 65.7797 162.678 55.8857 167.742 48.583C172.923 41.1625 181.46 37.4523 193.354 37.4523C200.89 37.4523 207.956 38.5713 214.55 40.8092L212.254 51.4099Z" class="dAFxpdcf_3"></path>
<path d="M268.954 81.0919H253.763V117.841H241.046V4.76678H253.763V69.7845H268.954V81.0919ZM302.515 38.689L268.247 77.9117V73.1413L304.634 117.841H287.677L254.823 75.7915L285.734 38.689H302.515Z" class="dAFxpdcf_4"></path>
<path d="M374.759 111.834C372.522 123.966 367.811 133.271 360.628 139.749C353.563 146.227 343.141 150.644 329.363 153L326.714 142.046C335.428 140.515 342.14 138.277 346.85 135.332C351.679 132.388 355.152 128.913 357.272 124.908C359.392 121.021 361.04 116.015 362.218 109.89C363.749 102.117 364.691 93.1649 365.044 83.0353C365.515 72.9058 365.751 58.1237 365.751 38.689H378.468C378.468 59.3015 378.174 74.8492 377.585 85.3322C376.996 95.8151 376.054 104.649 374.759 111.834ZM327.774 38.689C329.893 58.1237 332.19 72.1402 334.663 80.7385C337.135 89.2191 340.727 95.1673 345.437 98.583C350.148 101.881 357.743 104.296 368.223 105.827L366.28 116.781C352.974 115.485 343.023 112.128 336.429 106.71C329.952 101.292 325.36 93.636 322.651 83.742C319.943 73.8481 317.47 58.8304 315.233 38.689H327.774Z" class="dAFxpdcf_5"></path>
<path d="M478.444 4.76678H491.162V106.534H535.674V117.841H478.444V4.76678Z" class="dAFxpdcf_6"></path>
<path d="M581.953 50.3498L560.05 48.9364V38.689H594.671V117.841H581.953V50.3498ZM577.184 13.424C577.184 10.2438 578.185 7.71143 580.187 5.82686C582.188 3.94229 584.661 3 587.605 3C590.549 3 593.022 3.94229 595.024 5.82686C597.026 7.71143 598.027 10.2438 598.027 13.424C598.027 16.722 597.026 19.3133 595.024 21.1979C593.022 22.9647 590.549 23.8481 587.605 23.8481C584.661 23.8481 582.188 22.9647 580.187 21.1979C578.185 19.3133 577.184 16.722 577.184 13.424Z" class="dAFxpdcf_7"></path>
<path d="M659.143 118.548C652.548 118.548 647.132 116.486 642.892 112.364C638.771 108.124 636.71 101.057 636.71 91.1625V38.689H649.428V89.7491C649.428 95.9918 650.311 100.468 652.077 103.177C653.844 105.886 657.023 107.24 661.616 107.24C665.62 107.24 669.564 106.062 673.45 103.707C677.454 101.233 681.164 98.053 684.578 94.1661L690.937 99.6431C687.64 104.826 683.048 109.302 677.16 113.071C671.39 116.722 665.384 118.548 659.143 118.548ZM681.929 106.534V38.689H694.647V106.357L695 117.841H683.342L681.929 106.534Z" class="dAFxpdcf_8"></path>
</mask>
<path d="M16.0112 93.636C17.1888 98.4653 19.0141 102.058 21.487 104.413C24.0776 106.769 27.787 107.947 32.615 107.947C38.7384 107.947 42.9777 106.298 45.3328 103C47.688 99.5842 48.8655 94.5783 48.8655 87.9823V16.0742H21.6636V4.76678H61.5833V87.2756C61.5833 98.2297 58.9927 106.298 53.8113 111.481C48.63 116.663 41.5646 119.254 32.615 119.254C24.4898 119.254 18.072 117.311 13.3617 113.424C8.65141 109.419 5.53085 103.824 4 96.6396L16.0112 93.636Z" stroke="white" stroke-width="6" mask="url(#path-1-outside-1_9_11)" class="dAFxpdcf_9"></path>
<path d="M126.585 67.4876C126.585 60.6561 125.349 55.9446 122.876 53.3534C120.521 50.6443 116.34 49.2898 110.335 49.2898C107.038 49.2898 103.564 49.7609 99.9133 50.7032C96.2629 51.5277 92.5535 52.6466 88.7853 54.0601L85.0759 43.8127C94.0255 39.808 102.74 37.8057 111.218 37.8057C120.403 37.8057 127.351 39.9847 132.061 44.3428C136.889 48.7008 139.303 55.5913 139.303 65.0141V106.534L140.01 117.841H127.998L126.585 106.534V67.4876ZM132.414 81.4452C118.519 81.4452 108.686 82.6231 102.916 84.9788C97.2638 87.3345 94.4376 91.0448 94.4376 96.1095C94.4376 99.5253 95.3797 102.234 97.2638 104.237C99.1479 106.239 102.033 107.24 105.919 107.24C109.334 107.24 112.749 106.534 116.164 105.12C119.697 103.707 124.171 101.528 129.588 98.583L130.295 98.2297L133.121 107.417C133.003 107.417 132.885 107.476 132.768 107.594C126.998 111.127 121.934 113.836 117.577 115.721C113.22 117.605 108.451 118.548 103.269 118.548C97.0283 118.548 91.7292 116.663 87.3722 112.894C83.1329 109.125 81.0133 103.766 81.0133 96.8163C81.0133 87.9823 85.017 81.3863 93.0245 77.0283C101.032 72.6702 114.162 70.4912 132.414 70.4912V81.4452Z" stroke="white" stroke-width="6" mask="url(#path-1-outside-1_9_11)" class="dAFxpdcf_10"></path>
<path d="M212.254 51.4099C205.895 49.6431 199.83 48.7597 194.06 48.7597C188.879 48.7597 184.816 49.702 181.872 51.5866C178.929 53.4711 176.809 56.5336 175.514 60.7739C174.218 64.8963 173.571 70.7267 173.571 78.265C173.571 85.8033 174.218 91.6926 175.514 95.9329C176.809 100.055 178.929 103.059 181.872 104.943C184.816 106.828 188.879 107.77 194.06 107.77C199.83 107.77 205.895 106.887 212.254 105.12L214.55 115.721C207.956 117.959 200.89 119.078 193.354 119.078C181.46 119.078 172.923 115.426 167.742 108.124C162.678 100.703 160.146 90.7503 160.146 78.265C160.146 65.7797 162.678 55.8857 167.742 48.583C172.923 41.1625 181.46 37.4523 193.354 37.4523C200.89 37.4523 207.956 38.5713 214.55 40.8092L212.254 51.4099Z" stroke="white" stroke-width="6" mask="url(#path-1-outside-1_9_11)" class="dAFxpdcf_11"></path>
<path d="M268.954 81.0919H253.763V117.841H241.046V4.76678H253.763V69.7845H268.954V81.0919ZM302.515 38.689L268.247 77.9117V73.1413L304.634 117.841H287.677L254.823 75.7915L285.734 38.689H302.515Z" stroke="white" stroke-width="6" mask="url(#path-1-outside-1_9_11)" class="dAFxpdcf_12"></path>
<path d="M374.759 111.834C372.522 123.966 367.811 133.271 360.628 139.749C353.563 146.227 343.141 150.644 329.363 153L326.714 142.046C335.428 140.515 342.14 138.277 346.85 135.332C351.679 132.388 355.152 128.913 357.272 124.908C359.392 121.021 361.04 116.015 362.218 109.89C363.749 102.117 364.691 93.1649 365.044 83.0353C365.515 72.9058 365.751 58.1237 365.751 38.689H378.468C378.468 59.3015 378.174 74.8492 377.585 85.3322C376.996 95.8151 376.054 104.649 374.759 111.834ZM327.774 38.689C329.893 58.1237 332.19 72.1402 334.663 80.7385C337.135 89.2191 340.727 95.1673 345.437 98.583C350.148 101.881 357.743 104.296 368.223 105.827L366.28 116.781C352.974 115.485 343.023 112.128 336.429 106.71C329.952 101.292 325.36 93.636 322.651 83.742C319.943 73.8481 317.47 58.8304 315.233 38.689H327.774Z" stroke="white" stroke-width="6" mask="url(#path-1-outside-1_9_11)" class="dAFxpdcf_13"></path>
<path d="M478.444 4.76678H491.162V106.534H535.674V117.841H478.444V4.76678Z" stroke="white" stroke-width="6" mask="url(#path-1-outside-1_9_11)" class="dAFxpdcf_14"></path>
<path d="M581.953 50.3498L560.05 48.9364V38.689H594.671V117.841H581.953V50.3498ZM577.184 13.424C577.184 10.2438 578.185 7.71143 580.187 5.82686C582.188 3.94229 584.661 3 587.605 3C590.549 3 593.022 3.94229 595.024 5.82686C597.026 7.71143 598.027 10.2438 598.027 13.424C598.027 16.722 597.026 19.3133 595.024 21.1979C593.022 22.9647 590.549 23.8481 587.605 23.8481C584.661 23.8481 582.188 22.9647 580.187 21.1979C578.185 19.3133 577.184 16.722 577.184 13.424Z" stroke="white" stroke-width="6" mask="url(#path-1-outside-1_9_11)" class="dAFxpdcf_15"></path>
<path d="M659.143 118.548C652.548 118.548 647.132 116.486 642.892 112.364C638.771 108.124 636.71 101.057 636.71 91.1625V38.689H649.428V89.7491C649.428 95.9918 650.311 100.468 652.077 103.177C653.844 105.886 657.023 107.24 661.616 107.24C665.62 107.24 669.564 106.062 673.45 103.707C677.454 101.233 681.164 98.053 684.578 94.1661L690.937 99.6431C687.64 104.826 683.048 109.302 677.16 113.071C671.39 116.722 665.384 118.548 659.143 118.548ZM681.929 106.534V38.689H694.647V106.357L695 117.841H683.342L681.929 106.534Z" stroke="white" stroke-width="6" mask="url(#path-1-outside-1_9_11)" class="dAFxpdcf_16"></path>
<style data-made-with="vivus-instant">.dAFxpdcf_0{stroke-dasharray:1712 1714;stroke-dashoffset:1713;animation:dAFxpdcf_draw 3000ms linear 0ms forwards;}.dAFxpdcf_1{stroke-dasharray:389 391;stroke-dashoffset:390;animation:dAFxpdcf_draw 3000ms linear 0ms forwards;}.dAFxpdcf_2{stroke-dasharray:491 493;stroke-dashoffset:492;animation:dAFxpdcf_draw 3000ms linear 0ms forwards;}.dAFxpdcf_3{stroke-dasharray:306 308;stroke-dashoffset:307;animation:dAFxpdcf_draw 3000ms linear 0ms forwards;}.dAFxpdcf_4{stroke-dasharray:532 534;stroke-dashoffset:533;animation:dAFxpdcf_draw 3000ms linear 0ms forwards;}.dAFxpdcf_5{stroke-dasharray:504 506;stroke-dashoffset:505;animation:dAFxpdcf_draw 3000ms linear 0ms forwards;}.dAFxpdcf_6{stroke-dasharray:341 343;stroke-dashoffset:342;animation:dAFxpdcf_draw 3000ms linear 0ms forwards;}.dAFxpdcf_7{stroke-dasharray:293 295;stroke-dashoffset:294;animation:dAFxpdcf_draw 3000ms linear 0ms forwards;}.dAFxpdcf_8{stroke-dasharray:439 441;stroke-dashoffset:440;animation:dAFxpdcf_draw 3000ms linear 0ms forwards;}.dAFxpdcf_9{stroke-dasharray:389 391;stroke-dashoffset:390;animation:dAFxpdcf_draw 3000ms linear 0ms forwards;}.dAFxpdcf_10{stroke-dasharray:491 493;stroke-dashoffset:492;animation:dAFxpdcf_draw 3000ms linear 0ms forwards;}.dAFxpdcf_11{stroke-dasharray:306 308;stroke-dashoffset:307;animation:dAFxpdcf_draw 3000ms linear 0ms forwards;}.dAFxpdcf_12{stroke-dasharray:532 534;stroke-dashoffset:533;animation:dAFxpdcf_draw 3000ms linear 0ms forwards;}.dAFxpdcf_13{stroke-dasharray:504 506;stroke-dashoffset:505;animation:dAFxpdcf_draw 3000ms linear 0ms forwards;}.dAFxpdcf_14{stroke-dasharray:341 343;stroke-dashoffset:342;animation:dAFxpdcf_draw 3000ms linear 0ms forwards;}.dAFxpdcf_15{stroke-dasharray:293 295;stroke-dashoffset:294;animation:dAFxpdcf_draw 3000ms linear 0ms forwards;}.dAFxpdcf_16{stroke-dasharray:439 441;stroke-dashoffset:440;animation:dAFxpdcf_draw 3000ms linear 0ms forwards;}@keyframes dAFxpdcf_draw{100%{stroke-dashoffset:0;}}@keyframes dAFxpdcf_fade{0%{stroke-opacity:1;}94.44444444444444%{stroke-opacity:1;}100%{stroke-opacity:0;}}</style></svg>
